<?xml version="1.0" standalone="no"?>
<!DOCTYPE svg PUBLIC "-//W3C//DTD SVG 20010904//EN"
 "http://www.w3.org/TR/2001/REC-SVG-20010904/DTD/svg10.dtd">
<svg version="1.0" xmlns="http://www.w3.org/2000/svg"
 width="755.000000pt" height="1000.000000pt" viewBox="0 0 755.000000 1000.000000"
 preserveAspectRatio="xMidYMid meet">
<metadata>
Created by potrace 1.16, written by Peter Selinger 2001-2019
</metadata>
<g transform="translate(0.000000,1000.000000) scale(0.100000,-0.100000)"
fill="#fff" stroke="#000">
<path d="M0 5000 l0 -5000 1295 0 c712 0 1295 2 1295 5 0 2 -14 11 -30 20 -17
9 -30 20 -30 25 0 13 54 -7 78 -31 21 -19 47 -19 1407 -19 1367 0 1386 0 1375
19 -5 11 -10 39 -10 62 0 34 2 40 14 30 10 -9 16 -9 21 -1 8 14 -3 260 -16
350 -6 36 -16 112 -24 170 -8 58 -23 148 -35 200 -12 52 -25 127 -31 165 -10
80 -24 158 -41 248 l-13 62 -6 -45 c-6 -43 -6 -42 -7 18 -2 55 0 62 17 62 26
0 32 21 12 43 -8 10 -20 33 -26 50 -18 58 -30 30 -33 -80 -3 -100 4 -171 29
-298 6 -27 14 -77 19 -110 5 -33 14 -80 19 -105 6 -25 10 -65 9 -90 0 -25 -3
-34 -5 -20 -2 14 -17 84 -33 155 -16 72 -33 166 -39 210 -5 44 -14 100 -20
125 -6 25 -10 87 -11 138 0 84 -4 102 -40 194 -44 112 -47 128 -25 128 20 0
40 -33 62 -105 10 -33 25 -67 34 -76 16 -16 18 -15 27 6 6 12 7 26 2 31 -10
10 -38 87 -86 231 -18 56 -40 116 -49 133 -8 16 -12 30 -7 30 5 0 24 -30 41
-67 18 -38 36 -76 42 -85 5 -10 9 -25 9 -33 0 -9 16 -46 35 -83 45 -88 62
-162 40 -174 -20 -12 -19 -36 1 -34 11 1 21 -14 31 -46 14 -43 14 -48 -1 -63
-9 -9 -16 -32 -16 -51 0 -28 4 -35 18 -32 9 2 18 14 20 28 2 14 8 30 14 35 7
7 9 -2 5 -30 -4 -22 -11 -41 -17 -43 -15 -5 -12 -39 7 -75 11 -22 16 -53 14
-101 0 -38 3 -74 8 -80 6 -7 15 -52 21 -100 6 -49 17 -116 24 -150 30 -134 41
-276 41 -508 l0 -238 423 0 422 0 -6 28 c-4 15 -11 35 -15 44 -14 27 -10 93 7
124 15 28 15 27 9 -36 -5 -52 -3 -61 6 -46 14 23 15 78 2 171 -7 46 -7 163 -1
335 7 222 6 290 -7 415 -9 83 -20 193 -25 245 -5 52 -13 142 -18 200 -5 58
-17 123 -27 145 -33 77 -54 145 -46 150 5 2 20 -21 34 -53 31 -67 35 -59 8 18
-11 30 -26 56 -34 58 -8 2 -17 15 -20 30 -3 15 -9 35 -12 45 -4 10 -3 17 4 17
6 0 11 -8 12 -17 0 -12 2 -14 6 -5 8 19 -19 85 -112 277 -92 190 -135 282
-135 293 -1 4 -9 25 -20 47 -15 31 -19 35 -20 18 0 -12 6 -42 14 -65 8 -24 24
-79 36 -122 12 -44 26 -87 30 -95 22 -41 131 -282 148 -326 11 -27 23 -70 27
-95 3 -25 21 -92 38 -150 29 -96 32 -118 33 -260 3 -177 3 -184 13 -150 18 60
21 -136 5 -270 -26 -219 -26 -218 -35 -195 -6 16 -8 12 -8 -17 -1 -20 -5 -39
-10 -43 -11 -6 -12 1 -36 173 -8 56 -26 155 -32 172 -3 12 -6 11 -15 -4 -10
-18 -12 -17 -29 15 -10 19 -18 54 -19 78 0 57 -11 46 -21 -21 -6 -38 -5 -54 4
-60 9 -5 9 -12 1 -25 -14 -23 -39 -31 -31 -10 3 9 1 20 -6 24 -7 5 -13 24 -13
43 -1 19 -7 71 -14 115 -6 44 -10 96 -8 117 2 20 0 34 -3 32 -4 -2 -10 2 -12
8 -4 8 -8 4 -13 -10 -5 -18 -9 -20 -15 -10 -5 7 -6 20 -4 29 3 9 -2 35 -10 59
-8 23 -15 61 -15 84 0 23 -7 51 -15 62 -10 13 -15 46 -15 109 0 61 -3 85 -10
75 -5 -8 -9 -44 -8 -80 0 -36 -2 -75 -6 -87 -6 -18 -4 -22 7 -17 25 9 29 -81
5 -141 -16 -41 -18 -55 -9 -81 7 -19 8 -40 3 -55 -8 -21 -10 -18 -26 27 -9 27
-20 78 -23 114 -3 36 -12 74 -19 85 -16 25 -64 245 -75 345 -8 79 -29 154 -41
148 -20 -10 -148 195 -148 238 0 15 2 15 28 -1 15 -10 37 -29 49 -44 18 -21
22 -23 23 -9 0 24 -70 100 -87 94 -13 -6 -83 49 -83 65 0 16 14 10 47 -21 38
-36 47 -38 38 -7 -10 33 -61 82 -105 102 -36 16 -57 41 -45 53 3 3 19 -4 35
-16 16 -12 33 -22 37 -22 4 0 23 -14 41 -31 18 -17 36 -28 39 -25 4 3 -29 42
-73 86 -81 81 -124 132 -124 147 0 5 9 16 20 26 16 14 20 27 17 57 -2 22 -9
46 -16 53 -9 11 -6 20 10 41 36 46 9 44 -32 -2 -21 -24 -44 -42 -50 -40 -7 2
16 35 50 73 54 61 74 95 55 95 -3 0 -23 -13 -43 -28 -35 -28 -101 -50 -101
-33 0 4 18 22 40 40 42 34 76 78 68 87 -3 3 -22 -4 -43 -16 -42 -24 -59 -19
-28 7 21 18 45 61 57 100 6 18 4 21 -14 16 -21 -5 -21 -5 -4 30 15 31 16 43 6
75 -15 48 -15 92 -2 92 19 0 40 -60 40 -113 0 -30 7 -68 15 -83 8 -16 15 -38
15 -49 0 -11 6 -29 14 -40 22 -34 45 -126 50 -209 2 -43 9 -83 14 -88 10 -10
9 14 -2 167 -2 28 -12 70 -21 95 -9 25 -20 70 -25 100 -16 108 -79 286 -124
353 -11 16 -16 36 -13 49 3 12 1 44 -5 71 -8 40 -7 52 4 64 13 12 25 1 96 -94
45 -59 122 -147 171 -195 91 -88 150 -160 206 -249 17 -26 48 -74 70 -106 22
-32 81 -140 132 -239 123 -244 129 -254 137 -247 3 3 6 -5 6 -18 1 -27 39
-103 40 -79 0 9 -7 26 -16 38 -8 12 -14 28 -12 34 3 7 17 -14 31 -47 25 -55
35 -75 72 -145 20 -38 45 -124 50 -177 l5 -48 -20 40 c-11 22 -20 47 -20 56 0
20 -58 167 -77 194 -13 19 -13 19 -13 0 0 -11 7 -33 15 -48 8 -15 17 -45 20
-65 4 -27 -3 -16 -24 38 -17 41 -59 134 -95 205 -36 72 -84 168 -105 215 -56
118 -120 231 -158 277 -18 21 -32 35 -32 31 -1 -4 5 -13 12 -20 16 -16 73
-115 106 -183 14 -27 34 -66 46 -85 12 -19 25 -48 29 -65 12 -49 65 -172 92
-212 13 -20 27 -48 30 -62 9 -41 76 -242 95 -286 9 -22 23 -65 29 -95 11 -48
26 -102 96 -355 8 -31 11 -72 8 -109 -4 -39 -3 -56 4 -52 6 3 10 20 10 36 -1
17 2 33 6 37 4 4 4 -37 1 -92 -4 -58 -2 -127 5 -165 18 -111 44 -477 44 -640
1 -179 -13 -360 -26 -357 -5 1 -11 -33 -13 -76 -2 -42 -7 -87 -11 -100 -4 -12
-8 -43 -8 -69 l-1 -48 193 0 192 0 1 33 1 32 14 -32 c17 -40 54 -46 54 -10 0
12 4 28 9 36 7 11 11 5 16 -22 l7 -37 74 0 c51 0 74 4 74 12 0 7 -5 48 -12 93
-8 57 -8 86 -1 100 9 16 13 9 22 -41 33 -165 33 -164 58 -164 23 0 24 2 18 43
-6 40 -5 41 10 22 9 -11 18 -30 22 -43 l5 -22 249 0 249 0 0 5000 0 5000
-3775 0 -3775 0 0 -5000z m4732 3558 c24 -11 55 -33 71 -47 21 -19 40 -26 85
-28 31 -2 71 -8 87 -13 17 -5 75 -14 130 -20 133 -14 176 -26 299 -86 28 -13
60 -24 73 -24 13 0 23 -4 23 -10 0 -5 -7 -10 -15 -10 -8 0 -15 -4 -15 -10 0
-12 6 -13 29 -1 12 7 33 1 76 -20 33 -15 69 -29 81 -29 31 0 111 -55 119 -82
10 -32 55 -78 77 -78 22 0 25 -45 4 -53 -15 -6 9 -37 120 -151 37 -38 68 -81
79 -109 21 -55 15 -71 -11 -32 -29 44 -90 102 -151 142 -31 21 -68 46 -82 55
-29 20 -86 23 -125 8 -26 -9 -47 3 -24 14 7 4 -8 4 -34 1 -28 -3 -48 -1 -48 5
0 6 9 10 19 10 11 0 23 5 26 10 3 6 17 10 31 10 13 0 24 -4 24 -10 0 -5 16
-10 36 -10 45 0 36 16 -13 24 -82 15 -115 5 -220 -61 -29 -18 -58 -32 -65 -31
-7 2 -12 -3 -11 -9 2 -7 -7 -13 -19 -13 -12 0 -19 -3 -15 -6 13 -13 -141 -124
-221 -159 -23 -10 -45 -15 -49 -12 -3 4 1 7 10 7 10 0 17 5 17 10 0 6 5 10 10
10 9 0 157 97 203 134 9 7 15 20 12 27 -3 9 7 22 25 32 16 10 45 32 63 48 17
16 42 32 55 35 12 4 22 10 22 15 0 5 9 9 21 9 11 0 18 4 15 9 -13 20 -93 -17
-222 -104 -50 -34 -105 -67 -124 -74 -19 -7 -42 -16 -51 -21 -28 -14 -202 -15
-228 -1 -26 14 -92 11 -156 -9 -56 -17 -115 -24 -115 -13 0 11 45 37 93 52 20
7 37 17 37 22 0 5 17 9 37 9 37 0 37 0 14 16 -19 13 -37 15 -99 10 -43 -4
-122 -10 -177 -14 -211 -15 -287 13 -92 35 26 3 47 8 47 13 0 14 -127 32 -179
25 -34 -5 -51 -3 -51 4 0 13 24 18 110 25 80 6 129 15 155 26 11 5 38 11 60
14 38 4 -175 -3 -262 -9 -22 -1 -54 -9 -70 -17 -86 -45 -168 -96 -196 -120
-53 -48 -48 -36 15 36 10 11 16 21 14 23 -6 6 -42 -24 -96 -77 -72 -72 -102
-110 -86 -110 7 0 19 7 26 16 8 8 22 20 32 25 17 9 18 8 10 -8 -6 -10 -27 -36
-48 -57 -36 -38 -36 -39 -10 -34 18 4 30 0 36 -11 5 -9 10 -12 10 -7 0 6 6 3
13 -6 18 -24 109 -68 153 -74 22 -3 59 -15 84 -26 25 -11 62 -23 83 -26 28 -3
37 -9 37 -23 0 -23 13 -24 43 -5 22 15 157 29 157 17 0 -15 -77 -91 -85 -84
-4 5 -3 -2 3 -13 6 -12 9 -24 5 -27 -3 -3 8 -9 23 -12 16 -4 67 -16 113 -27
66 -16 101 -19 166 -14 45 3 85 3 89 -1 4 -4 51 -8 104 -8 53 0 82 1 64 3 -18
2 -30 8 -27 13 8 12 322 12 330 -1 3 -5 17 -10 31 -10 29 0 89 -36 125 -76 59
-65 135 -181 126 -191 -7 -6 -95 83 -116 117 -24 41 -111 132 -122 128 -5 -2
9 -23 30 -48 22 -25 78 -94 126 -155 48 -60 97 -119 110 -130 73 -63 113 -90
121 -82 3 2 -27 33 -65 68 -39 35 -71 67 -71 71 0 14 15 9 38 -12 12 -11 26
-20 32 -20 5 0 10 -3 10 -8 0 -4 12 -13 28 -19 15 -7 48 -33 75 -58 26 -25 47
-41 47 -34 0 7 10 9 24 7 22 -4 24 -2 21 26 -2 17 -1 25 2 18 2 -6 9 -10 14
-6 5 3 12 -3 16 -12 3 -10 15 -26 25 -36 14 -14 23 -16 38 -8 18 10 20 7 20
-22 0 -39 -35 -77 -53 -59 -6 6 -19 11 -30 11 -10 0 -16 4 -13 8 2 4 -4 14
-16 21 -20 12 -20 12 -2 -18 10 -17 23 -31 29 -31 6 0 11 -31 12 -74 1 -63 -2
-77 -22 -102 l-23 -29 -26 24 -25 24 9 -29 c41 -132 43 -141 36 -197 -7 -54
-13 -62 -43 -58 -7 1 -15 -14 -19 -34 -3 -19 -10 -38 -15 -41 -12 -7 -49 74
-49 108 0 15 -6 45 -14 65 -8 21 -17 50 -20 66 -4 15 -11 27 -17 27 -7 0 -8
-7 -4 -17 51 -123 70 -301 40 -359 -19 -37 -19 -81 0 -169 8 -39 16 -88 17
-110 1 -22 5 21 9 95 9 168 19 250 30 250 5 0 11 -12 15 -27 3 -16 9 -37 14
-48 7 -16 9 -13 9 17 1 38 17 61 23 31 2 -9 -1 -54 -6 -100 -7 -67 -6 -93 7
-136 9 -28 21 -74 27 -102 6 -27 14 -60 17 -71 2 -12 -2 -37 -10 -55 -20 -45
-27 -78 -37 -178 -9 -83 -26 -121 -49 -107 -6 4 -11 15 -12 24 0 9 -7 -3 -14
-28 -15 -47 -5 -76 22 -66 10 4 13 -6 13 -39 0 -53 -16 -59 -43 -17 l-18 27 6
-28 c3 -18 2 -26 -4 -23 -13 9 5 -52 22 -73 21 -26 39 -74 29 -80 -5 -3 -9
-18 -9 -33 -2 -61 0 -59 -40 -52 -35 7 -37 6 -24 -9 12 -15 11 -17 -10 -17
l-23 0 27 -28 c24 -25 26 -32 17 -62 -14 -49 -31 -80 -45 -80 -16 0 -47 -35
-39 -43 4 -3 15 -2 26 4 24 13 35 5 19 -14 -6 -8 -30 -17 -53 -20 -22 -3 -44
-9 -47 -14 -3 -5 -20 -15 -38 -22 -18 -7 -39 -24 -48 -37 -10 -15 -25 -24 -41
-24 -22 0 -26 -4 -22 -24 3 -15 -1 -27 -13 -34 -9 -6 -42 -44 -73 -84 -30 -40
-69 -88 -86 -105 -37 -39 -26 -44 16 -8 16 14 38 25 49 25 17 0 14 -6 -17 -35
-21 -18 -38 -42 -38 -52 0 -14 -2 -15 -9 -4 -7 10 -18 0 -43 -40 -39 -60 -136
-159 -155 -159 -9 0 -10 7 -3 25 5 14 8 25 7 25 -2 0 -23 -18 -47 -41 -55 -50
-98 -70 -123 -57 -10 5 -37 8 -60 6 l-42 -3 2 65 c1 53 0 57 -5 23 -8 -51 -44
-95 -75 -91 -16 2 -24 14 -33 48 l-12 45 -1 -42 c-1 -32 -5 -43 -16 -43 -17 0
-14 39 7 108 13 44 4 52 -12 10 -32 -86 -50 -101 -50 -42 0 21 -4 33 -10 29
-5 -3 -10 -15 -10 -25 0 -28 -30 -113 -45 -129 -24 -25 -47 5 -43 56 2 24 2
43 1 43 -15 0 -43 -40 -43 -62 0 -69 -55 -30 -75 53 -9 35 -14 45 -14 27 -1
-32 -17 -44 -36 -28 -13 10 -15 8 -15 -14 0 -19 -5 -26 -20 -26 -25 0 -36 22
-44 88 -7 56 -34 122 -49 122 -5 0 0 -16 12 -36 14 -24 21 -52 21 -89 0 -60
-8 -71 -36 -51 -15 11 -18 25 -16 72 l2 59 -20 -24 c-11 -13 -20 -19 -20 -15
-1 5 -7 -2 -15 -16 -9 -16 -14 -19 -15 -9 0 8 -16 23 -35 32 -19 9 -54 34 -78
54 -23 21 -62 54 -87 73 -25 19 -52 43 -60 54 -8 12 -30 34 -49 51 -19 16 -52
49 -73 71 -22 23 -48 44 -59 47 -26 7 -24 1 13 -32 18 -16 30 -32 27 -36 -22
-21 -189 95 -189 132 0 7 -4 13 -10 13 -5 0 -12 16 -16 37 -4 20 -13 48 -20
62 -17 32 -18 48 -3 53 7 2 1 16 -13 33 -26 31 -51 100 -63 170 -4 22 -17 72
-30 110 -13 39 -29 97 -34 130 -23 137 -40 222 -50 249 -7 16 -9 36 -6 45 3
10 -2 39 -11 67 -21 67 -28 299 -15 559 6 116 13 227 17 249 8 47 -11 42 -22
-7 l-7 -32 -10 35 c-5 19 -11 53 -14 74 -5 40 -25 71 -37 59 -3 -4 -6 21 -6
55 0 34 -4 62 -8 62 -11 0 -32 -61 -32 -92 0 -32 -30 -88 -48 -88 -20 0 -62
47 -62 69 0 11 9 25 19 31 17 9 21 5 32 -25 15 -40 24 -45 26 -13 3 40 54 243
81 318 25 74 33 91 95 199 17 30 26 51 20 48 -14 -9 -133 -183 -133 -194 0 -5
-18 -34 -40 -63 -22 -29 -40 -47 -40 -38 0 8 14 35 32 59 18 24 56 91 86 149
29 58 64 119 78 137 27 36 25 44 -3 15 -48 -49 -96 -116 -133 -189 -44 -87
-80 -131 -80 -99 0 40 65 172 110 221 26 28 62 74 80 101 36 54 99 124 112
124 7 0 15 5 76 57 15 13 21 23 14 23 -15 0 -75 -39 -80 -52 -2 -4 -10 -8 -18
-8 -8 0 -14 -4 -14 -10 0 -5 -5 -10 -12 -10 -7 0 -30 -20 -53 -43 -41 -44 -41
-44 -37 -15 4 27 44 65 102 98 8 5 11 12 7 16 -5 5 -11 4 -15 -1 -4 -6 -18
-16 -31 -23 -13 -8 -40 -23 -60 -34 -20 -11 -47 -31 -61 -44 -14 -13 -36 -33
-48 -43 -13 -11 -21 -25 -17 -31 3 -5 -1 -13 -9 -16 -22 -8 -61 -82 -91 -172
-20 -59 -25 -88 -20 -123 5 -34 3 -49 -8 -58 -13 -10 -22 -2 -57 46 l-41 58
25 3 c30 4 34 18 7 27 -25 8 -76 92 -85 140 -7 38 -7 38 15 24 12 -9 30 -31
40 -49 10 -19 26 -41 35 -49 9 -9 1 11 -16 44 -18 33 -43 70 -56 82 -25 23
-25 39 -3 101 5 13 9 34 9 46 0 13 8 34 19 47 10 13 16 29 14 35 -7 19 45 121
73 143 42 33 49 25 14 -19 -18 -23 -30 -44 -26 -47 6 -6 45 36 46 49 0 4 12
14 28 22 15 8 46 33 70 55 39 36 41 40 22 46 -18 6 -17 9 19 42 22 19 52 54
67 77 28 41 49 62 164 165 63 58 71 71 43 71 -20 0 13 20 63 38 18 6 22 11 12
11 -28 1 -21 18 12 30 17 5 30 14 30 18 0 11 59 33 88 33 11 0 24 -4 27 -10 7
-12 132 -12 160 0 13 6 -11 9 -71 9 -69 1 -95 5 -104 16 -7 8 -22 15 -33 15
-20 0 -20 1 -4 17 10 10 35 18 59 19 41 1 132 37 144 55 2 5 17 6 33 3 20 -4
30 -1 34 10 8 20 66 46 102 46 14 0 54 14 88 30 35 17 77 30 93 30 16 0 56 14
89 31 37 19 82 33 118 36 31 3 57 9 57 14 0 5 39 10 88 12 48 1 99 4 114 5 15
1 47 -8 70 -20z m1094 -644 c27 -14 51 -29 54 -33 3 -4 20 -17 38 -30 52 -37
109 -101 139 -158 32 -61 41 -66 35 -22 -4 24 -1 30 9 27 10 -3 15 -30 16
-101 2 -53 0 -97 -3 -97 -3 0 -12 16 -20 35 -17 41 -34 46 -34 10 0 -28 20
-76 29 -71 4 3 5 -13 3 -35 -5 -45 -13 -49 -36 -14 -9 14 -23 25 -31 25 -11 0
-10 -8 5 -42 28 -61 26 -82 -5 -76 -20 4 -24 2 -20 -11 18 -59 25 -138 19
-226 -4 -55 -3 -97 1 -93 13 13 26 97 32 201 3 55 11 110 19 125 l14 27 0 -37
c0 -20 -4 -39 -9 -42 -5 -3 -8 -36 -6 -73 3 -92 -12 -193 -32 -215 -25 -28
-65 -20 -74 16 -9 34 -37 66 -57 66 -22 0 -52 30 -45 46 3 9 -2 14 -18 15 -13
0 -18 3 -11 6 6 2 12 10 12 16 -1 19 -154 177 -172 177 -23 0 -33 -19 -14 -26
9 -3 16 -10 16 -14 0 -5 23 -31 50 -60 28 -29 50 -54 50 -56 0 -10 -29 -3 -33
9 -2 6 -7 9 -11 6 -4 -4 31 -44 76 -89 88 -88 87 -89 -7 -27 -80 53 -111 82
-150 142 -18 28 -44 63 -59 78 -15 16 -34 40 -43 54 -17 25 -17 26 7 18 30 -9
75 -9 91 1 7 4 -2 13 -22 22 -19 9 -39 23 -44 30 -6 8 -39 17 -73 21 -34 4
-68 13 -74 19 -19 19 20 41 72 42 25 0 51 4 59 9 22 14 3 31 -35 31 -19 0 -34
5 -34 11 0 12 32 11 230 -7 113 -10 77 9 -70 37 -121 23 -141 22 -219 -10 -69
-29 -82 -31 -197 -31 -76 0 -124 4 -124 10 0 6 8 10 18 10 10 0 22 4 28 9 5 5
50 11 99 14 118 6 224 23 309 49 54 16 80 19 120 13 28 -5 78 -9 111 -10 33
-1 79 -8 103 -15 23 -7 45 -10 49 -6 12 11 -49 66 -104 93 -29 14 -53 32 -53
39 0 8 -4 14 -10 14 -5 0 -10 8 -10 18 0 9 -14 25 -31 35 -20 11 -29 23 -25
32 4 12 -7 14 -72 9 -42 -3 -96 -10 -120 -16 -23 -6 -46 -8 -50 -4 -8 9 16 24
88 54 30 13 65 28 77 34 13 6 26 8 30 3 5 -4 2 -10 -4 -12 -27 -9 -11 -22 30
-25 27 -2 41 -7 40 -15 -2 -7 4 -13 12 -13 9 0 12 6 9 15 -4 10 0 15 15 15 12
0 21 5 21 10 0 6 -8 10 -19 10 -10 0 -24 7 -31 15 -20 25 20 19 76 -11z m-692
-303 c8 -13 -41 -31 -86 -31 -39 0 -102 -13 -143 -31 -11 -4 -51 -18 -90 -30
-38 -12 -95 -30 -126 -41 -52 -17 -169 -25 -182 -12 -11 11 5 34 24 34 18 0
31 5 82 32 77 41 140 69 164 72 15 2 20 1 11 -1 -10 -2 -18 -9 -18 -14 0 -5
-10 -9 -22 -9 -13 0 -34 -9 -48 -20 -14 -11 -34 -20 -44 -20 -15 0 -17 -3 -9
-11 18 -18 157 6 243 41 41 17 104 34 140 39 92 12 98 12 104 2z m-1910 -1079
c10 -42 25 -94 32 -115 17 -45 9 -191 -11 -211 -10 -10 -10 -40 -2 -139 8
-100 8 -132 -2 -154 -18 -39 -21 -151 -4 -192 7 -18 17 -70 22 -115 6 -44 17
-97 26 -116 l16 -35 -6 40 c-3 22 -8 60 -11 85 l-5 45 20 -43 c22 -45 35 -104
52 -220 5 -40 19 -96 30 -125 20 -49 64 -204 93 -327 8 -30 19 -67 26 -83 20
-42 1 -46 -33 -6 -31 36 -84 151 -126 274 -24 68 -25 79 -9 69 7 -5 9 -2 5 7
-41 94 -57 137 -57 151 0 9 -10 25 -22 35 -43 35 -58 60 -64 104 -3 24 -10 62
-15 84 -5 22 -9 49 -9 59 0 20 0 20 15 0 8 -10 15 -29 15 -41 0 -13 9 -37 20
-55 23 -38 26 -32 7 15 -8 18 -17 49 -21 70 -4 20 -11 37 -16 37 -6 0 -10 9
-10 19 0 11 -21 39 -46 63 l-46 43 4 83 c4 73 3 82 -13 82 -63 0 -119 84 -119
178 0 65 85 242 117 242 6 0 13 10 15 23 5 35 33 27 88 -27 51 -50 62 -48 34
6 -32 62 -59 216 -41 234 4 4 7 15 7 25 0 11 5 16 13 13 7 -2 21 -39 31 -82z
m156 -1643 c0 -6 26 -38 58 -72 32 -34 70 -82 84 -107 48 -83 217 -276 203
-231 -7 22 -3 20 29 -11 21 -20 49 -39 64 -43 50 -12 89 -45 153 -126 35 -44
66 -85 68 -92 2 -6 -33 25 -78 69 -90 87 -157 132 -172 117 -5 -5 24 -39 77
-88 144 -134 196 -186 190 -193 -4 -3 -25 12 -49 34 -50 48 -96 78 -105 69 -4
-4 2 -11 13 -17 11 -6 43 -34 70 -62 64 -66 153 -129 172 -122 8 3 25 -1 39
-10 13 -9 24 -12 24 -8 0 16 -44 59 -101 101 -31 23 -59 51 -62 62 -5 21 -5
21 21 2 15 -10 51 -33 81 -50 55 -33 58 -31 36 22 -10 23 6 22 39 -4 14 -11
26 -30 26 -43 0 -21 17 -46 31 -46 4 0 5 16 2 35 -8 48 20 48 49 -1 l22 -37
17 22 c9 11 22 21 28 21 17 0 34 -51 21 -64 -18 -18 -10 -28 19 -21 17 3 32 2
36 -4 12 -20 89 -11 165 19 41 17 83 30 93 30 9 0 26 9 37 20 16 16 33 20 94
20 57 0 84 5 118 23 23 12 45 25 46 30 2 4 10 7 18 7 8 0 14 5 14 10 0 6 6 10
14 10 24 0 151 126 215 213 60 83 91 110 124 111 9 1 45 28 78 61 63 62 65 46
5 -30 -18 -22 -40 -62 -50 -90 -11 -27 -25 -57 -32 -65 -7 -8 -16 -40 -19 -70
-4 -30 -11 -67 -17 -82 -5 -15 -8 -33 -6 -40 3 -7 12 7 21 32 12 36 16 40 16
19 2 -47 -21 -144 -40 -175 -11 -18 -30 -35 -44 -38 -15 -4 -27 -15 -29 -29
-3 -12 -15 -62 -27 -112 -25 -108 -36 -180 -49 -340 -9 -124 -44 -250 -77
-287 -9 -10 -30 -18 -48 -18 -18 0 -49 -7 -69 -15 -102 -43 -399 -100 -486
-93 -30 3 -49 3 -42 1 6 -3 12 -9 12 -14 0 -5 -43 -9 -95 -9 -52 0 -95 4 -95
9 0 5 -37 12 -82 16 -46 4 -123 14 -173 22 -49 9 -115 15 -145 15 -29 -1 -57
3 -60 8 -3 5 -51 19 -105 30 -142 28 -164 34 -216 57 -58 26 -89 52 -89 76 0
23 -71 89 -89 82 -8 -3 -11 0 -8 9 4 10 1 13 -8 9 -9 -3 -37 17 -71 49 -30 29
-61 55 -67 56 -7 2 41 -47 106 -110 64 -62 117 -117 117 -122 0 -12 -50 3 -81
25 -15 10 -30 19 -33 19 -10 0 -207 135 -240 164 -32 28 -47 33 -42 14 1 -7 1
-10 -1 -5 -3 4 -9 7 -15 7 -6 0 -25 11 -42 24 -46 35 -220 116 -249 116 -13 0
-30 -7 -37 -15 -7 -8 -19 -15 -27 -15 -10 0 -12 -6 -8 -19 4 -14 0 -23 -14
-31 -12 -6 -24 -22 -27 -36 -5 -19 -11 -23 -28 -18 -36 11 -61 54 -31 54 9 0
20 10 26 23 5 12 28 31 51 42 22 10 43 25 45 32 3 7 16 13 29 13 32 0 30 14
-3 26 l-26 9 25 30 c24 28 30 29 100 30 72 0 76 1 130 43 30 23 62 42 71 42
10 0 17 5 17 10 0 18 -44 11 -79 -13 -19 -12 -44 -28 -55 -34 -24 -15 -80 -17
-72 -4 3 5 -1 12 -10 15 -23 9 -2 32 35 39 16 3 35 12 43 19 17 16 50 36 103
61 22 11 52 28 67 38 14 11 32 18 40 16 7 -2 10 -2 6 0 -14 8 -9 23 7 23 8 0
15 5 15 10 0 6 7 10 15 10 8 0 15 3 15 8 0 9 49 32 70 32 9 0 25 6 35 14 17
12 17 16 6 30 -18 22 -6 34 38 38 26 2 38 10 51 33 35 64 76 226 87 346 4 43
1 59 -11 72 -33 33 -95 177 -77 177 5 0 6 20 3 45 -3 30 -1 45 7 45 6 0 11 -5
11 -11z m1995 -969 c3 -5 20 -10 37 -10 24 0 42 -11 75 -45 24 -25 56 -51 71
-57 39 -16 102 -27 96 -17 -3 5 4 9 15 9 25 0 101 -75 101 -100 0 -26 77 -88
125 -101 22 -6 45 -13 51 -14 14 -4 88 -94 83 -100 -3 -2 -22 11 -42 30 -66
61 -63 38 4 -31 82 -83 80 -81 109 -139 23 -47 50 -84 50 -70 0 13 -63 121
-92 158 -20 25 -24 37 -15 37 51 0 164 -219 212 -410 9 -36 25 -88 35 -116 23
-62 38 -214 21 -214 -6 0 -11 15 -11 33 0 48 -26 130 -61 188 -21 36 -27 58
-23 77 4 17 2 22 -3 14 -7 -9 -19 2 -43 40 -18 29 -61 82 -94 118 -34 36 -73
80 -88 98 -33 40 -40 41 -26 1 16 -47 3 -45 -32 5 -17 26 -43 54 -58 64 -63
40 -144 106 -159 129 -9 14 -41 38 -70 55 -30 17 -65 46 -80 64 -16 22 -34 34
-49 34 -30 0 -30 -7 1 -53 14 -20 23 -37 21 -37 -15 0 -87 48 -126 84 -25 23
-59 48 -77 55 -39 16 -52 49 -42 111 11 71 35 120 58 120 11 0 23 -4 26 -10z
m-2785 -269 c-36 -21 -67 -45 -71 -52 -15 -33 -30 -91 -25 -97 4 -3 9 4 13 16
3 12 10 22 15 22 16 0 58 -37 51 -44 -10 -9 29 -35 53 -36 12 0 27 -7 34 -16
11 -12 11 -18 -3 -31 -14 -14 -18 -14 -44 4 -35 25 -73 38 -73 24 0 -5 -2 -16
-5 -23 -4 -9 12 -20 50 -33 31 -10 54 -23 52 -29 -2 -5 -24 -17 -49 -25 -48
-16 -71 -31 -49 -31 9 0 9 -5 0 -22 -16 -30 -45 -53 -99 -79 -25 -12 -54 -28
-65 -36 -19 -13 -18 -14 10 -8 36 8 82 23 112 37 59 28 34 -6 -59 -82 -56 -46
-157 -138 -223 -204 -66 -66 -130 -129 -142 -140 -27 -24 -29 -36 -8 -36 8 0
-28 -45 -80 -99 -53 -54 -110 -120 -127 -147 -48 -76 -246 -269 -298 -292 -25
-11 -52 -27 -60 -37 -14 -17 -13 -17 7 -7 59 32 64 -8 6 -58 -18 -16 -38 -30
-44 -30 -6 0 -3 -7 5 -16 14 -14 14 -18 -2 -42 -10 -15 -38 -57 -61 -93 -46
-69 -93 -109 -129 -109 -12 0 -22 -4 -22 -10 0 -5 -6 -10 -14 -10 -8 0 -16 -3
-18 -7 -10 -23 -90 -53 -140 -53 -77 0 -149 -11 -142 -22 3 -4 34 -5 70 -2 66
7 79 -1 47 -27 -11 -10 -46 -14 -120 -13 -56 0 -103 -3 -103 -8 0 -27 196 -62
223 -40 7 6 33 14 57 18 41 6 43 5 25 -8 -11 -8 -49 -27 -85 -43 -60 -27 -74
-30 -182 -30 -114 0 -116 0 -138 -27 -15 -20 -28 -26 -48 -24 -15 2 -19 1 -9
-1 21 -5 22 -21 0 -45 -20 -22 1 -25 23 -4 8 8 36 18 62 21 26 3 64 11 85 17
20 6 40 9 43 5 7 -7 -45 -30 -125 -53 -43 -13 -66 -25 -71 -39 -9 -23 4 -29
85 -47 45 -10 48 -12 26 -20 -14 -5 -51 -25 -83 -44 l-59 -36 -23 21 c-12 11
-25 21 -29 21 -9 0 -157 -173 -157 -183 0 -5 7 -7 15 -3 24 9 18 -11 -20 -67
-19 -28 -35 -55 -35 -60 0 -14 -43 -67 -67 -82 -33 -22 -29 -11 12 31 41 42
43 48 13 39 -13 -4 -54 -39 -91 -79 l-68 -71 42 65 c23 36 49 71 58 79 14 12
12 13 -12 7 l-28 -7 7 52 c5 39 4 50 -5 45 -13 -9 -6 34 12 68 5 11 11 41 12
67 4 61 42 126 113 189 31 28 60 50 65 50 4 0 5 4 2 10 -7 12 -39 -5 -82 -44
-18 -16 -36 -27 -39 -23 -3 3 8 31 26 61 25 45 38 58 68 66 20 6 48 17 62 25
l25 14 -28 1 c-15 0 -36 -5 -47 -12 -25 -16 -35 -5 -18 22 15 25 57 46 112 55
29 5 36 9 25 16 -8 5 -31 7 -51 3 -53 -8 -48 10 14 50 16 10 28 23 28 29 0 13
40 57 52 57 4 0 27 9 51 19 23 11 49 22 57 25 8 3 -11 3 -42 0 -62 -7 -74 3
-37 30 12 8 48 38 80 67 44 39 59 60 59 79 0 34 17 50 52 50 15 0 28 5 28 10
0 6 -9 10 -21 10 -17 0 -13 8 28 54 27 30 68 69 92 86 33 25 40 34 30 41 -12
7 -11 9 1 9 8 0 40 19 70 41 l55 40 -40 -7 -40 -7 52 42 c29 22 57 41 62 41 5
0 11 10 15 23 3 13 22 36 43 53 20 16 60 53 88 83 27 30 76 80 108 112 58 59
66 74 45 82 -9 4 -7 6 3 6 9 1 43 27 75 59 32 32 104 96 159 142 55 46 107 91
115 100 8 9 38 34 65 56 28 21 84 73 125 115 41 41 98 90 125 109 28 19 52 37
53 42 2 4 9 8 16 8 7 0 21 9 31 20 10 11 22 20 26 20 21 0 155 105 233 183 50
50 106 84 140 86 11 1 -9 -16 -44 -38z m155 -380 c-3 -6 -24 -20 -45 -31 -39
-20 -111 -87 -226 -210 -34 -36 -85 -85 -114 -110 -30 -25 -71 -60 -92 -79
-57 -50 -46 -21 21 56 114 132 393 379 435 385 26 5 30 2 21 -11z m90 -86 c17
-4 44 -18 61 -30 16 -13 65 -42 108 -64 43 -23 70 -41 59 -41 -11 0 -33 6 -49
14 -16 8 -50 21 -77 28 -42 11 -49 10 -64 -5 -16 -16 -16 -17 12 -17 17 0 36
-4 42 -8 7 -5 -31 -14 -90 -21 -67 -8 -125 -23 -171 -42 -37 -16 -77 -29 -87
-29 -41 0 -95 -43 -335 -266 -55 -51 -118 -107 -140 -122 -51 -38 -99 -90 -91
-98 4 -4 13 -1 21 5 8 7 20 10 26 6 5 -3 10 0 11 7 0 9 2 9 5 1 4 -9 18 -8 57
3 29 8 60 19 69 24 10 6 23 10 30 10 8 0 5 -5 -4 -11 -32 -18 -22 -38 16 -32
19 3 52 2 73 -2 35 -6 37 -8 18 -21 -10 -8 -35 -14 -56 -14 -36 0 -66 -21 -55
-38 3 -5 -20 -15 -52 -21 -31 -6 -66 -18 -76 -26 -11 -8 -34 -15 -51 -15 -20
0 -42 -10 -63 -30 -18 -17 -37 -30 -41 -30 -11 0 -51 -39 -51 -50 0 -5 21 0
46 11 26 10 51 19 58 18 6 -1 26 2 44 6 26 6 30 10 21 21 -6 8 -20 14 -30 14
-11 0 -19 5 -19 10 0 6 12 10 28 10 15 1 45 9 67 20 32 16 62 19 155 20 71 0
130 -5 154 -14 35 -12 36 -14 15 -19 -13 -4 -37 -7 -53 -7 -24 0 -27 -2 -16
-15 7 -8 27 -15 46 -15 18 0 37 -6 41 -12 12 -20 50 -38 77 -38 13 0 40 -7 61
-16 20 -8 42 -13 48 -10 7 2 5 5 -4 5 -9 1 -19 8 -23 16 -3 8 -13 15 -21 15
-9 0 -13 5 -10 10 4 7 16 5 33 -4 29 -16 104 -50 112 -52 15 -2 60 -28 60 -35
0 -4 8 -10 18 -13 9 -3 -1 -3 -23 -1 -22 2 -32 1 -22 -1 9 -3 17 -9 17 -14 0
-16 114 -86 142 -88 15 -1 52 -18 81 -38 41 -27 53 -41 50 -55 -5 -18 -6 -18
-32 0 -14 10 -39 31 -54 45 -29 27 -47 33 -47 16 0 -5 4 -10 8 -10 5 0 31 -23
58 -50 35 -36 64 -55 102 -67 28 -9 52 -22 52 -28 0 -6 18 -27 40 -48 22 -20
40 -44 40 -54 1 -20 23 -53 36 -53 5 0 15 -12 21 -27 7 -16 23 -53 36 -83 14
-30 40 -69 58 -86 48 -44 81 -84 69 -84 -5 0 -27 16 -49 35 -21 19 -54 41 -72
49 -19 8 -57 38 -85 68 -56 58 -177 168 -200 181 -33 19 -6 -12 128 -143 90
-87 145 -135 150 -127 4 7 31 -14 75 -57 37 -38 62 -65 56 -62 -23 12 -14 -15
17 -54 17 -21 30 -41 30 -44 0 -4 9 -17 21 -29 38 -41 99 -182 99 -231 0 -12
7 -34 15 -49 24 -46 55 -156 54 -191 0 -17 -3 -24 -6 -16 -2 8 -8 24 -13 35
-19 47 -69 203 -75 238 -4 20 -11 40 -16 43 -5 3 -9 12 -9 19 0 48 -140 268
-210 330 -21 19 -21 17 4 -30 15 -27 45 -79 67 -114 22 -34 39 -64 37 -66 -2
-2 -39 44 -83 102 -126 167 -403 457 -485 508 -57 35 -132 103 -121 110 8 5
169 -73 195 -94 7 -6 20 -9 28 -6 18 7 77 -18 106 -45 19 -18 27 -20 50 -12
17 7 21 11 10 11 -10 1 -54 26 -98 57 -93 64 -126 77 -267 101 -18 3 -33 9
-33 14 0 5 -7 9 -15 9 -8 0 -15 5 -15 10 0 6 -5 10 -11 10 -5 0 -27 11 -47 25
-36 25 -62 32 -62 18 0 -5 17 -16 38 -25 21 -10 47 -26 58 -36 11 -11 26 -22
34 -25 13 -5 13 -6 0 -6 -8 -1 -32 8 -53 19 -21 11 -59 28 -84 36 -25 9 -55
24 -66 35 -12 10 -28 19 -36 19 -12 -1 -11 -3 4 -12 11 -6 29 -20 40 -30 11
-11 63 -42 115 -70 52 -28 115 -70 140 -93 25 -23 68 -57 95 -76 28 -18 79
-58 114 -88 55 -47 87 -83 205 -221 11 -14 28 -41 37 -60 9 -20 43 -69 76
-110 66 -84 120 -176 211 -357 76 -151 100 -214 107 -278 l6 -50 -20 55 c-99
264 -237 520 -338 625 -92 95 -119 135 -102 147 12 8 12 9 0 6 -8 -3 -38 18
-67 44 -57 54 -204 168 -216 168 -4 0 -55 43 -114 95 -58 52 -110 95 -115 95
-5 0 -9 6 -9 13 0 7 -12 21 -27 32 -15 11 -56 41 -90 67 -97 73 -114 79 -250
95 -58 6 -62 9 -35 29 19 15 123 19 138 5 10 -10 74 -25 74 -18 0 2 -20 14
-44 27 -57 29 -69 52 -23 43 18 -3 40 -10 49 -14 9 -5 32 -9 52 -9 19 0 38 -4
41 -10 3 -5 17 -10 31 -10 22 0 62 -17 74 -31 9 -11 93 -49 98 -44 6 6 10 4
-63 52 -33 21 -77 47 -97 57 -39 18 -52 38 -19 29 10 -3 22 1 26 7 12 20 -22
44 -72 50 -34 3 -48 10 -48 20 0 11 -13 15 -55 16 -30 0 -65 4 -76 8 -39 12
-93 16 -99 6 -4 -6 7 -10 24 -10 16 0 34 -6 38 -14 4 -7 26 -19 48 -27 l40
-14 -34 -3 c-19 -2 -37 1 -40 6 -11 16 -160 37 -173 24 -9 -9 -3 -12 24 -12
20 0 39 -4 43 -9 6 -10 -47 -17 -201 -26 -100 -6 -139 -1 -128 16 3 5 0 9 -6
9 -6 0 -13 -7 -16 -15 -4 -8 -12 -15 -20 -15 -8 0 -14 -4 -14 -10 0 -5 7 -10
15 -10 25 0 17 -17 -12 -25 -16 -3 -45 -18 -66 -32 -20 -14 -40 -24 -43 -21
-3 3 19 33 49 66 29 33 64 76 77 95 13 19 37 43 53 52 16 10 39 28 50 42 12
13 47 38 79 56 66 36 68 51 3 32 -25 -8 -45 -12 -45 -9 0 3 -13 -3 -30 -13
-16 -9 -30 -21 -30 -25 0 -4 -4 -8 -10 -8 -5 0 -18 -6 -27 -14 -10 -8 -46 -38
-81 -66 -35 -29 -66 -50 -68 -47 -9 9 331 357 383 392 28 19 59 44 69 57 11
13 45 43 76 66 99 76 169 145 171 170 1 17 13 30 40 43 42 22 117 86 117 101
0 5 -4 6 -10 3 -5 -3 -10 -1 -10 5 0 7 6 10 14 7 8 -3 20 1 27 10 8 8 22 19
34 24 16 8 14 8 -8 4 l-29 -6 24 24 c13 14 32 30 43 36 20 11 94 9 150 -4z
m3454 -966 c5 -24 25 -87 44 -139 62 -168 71 -207 70 -297 -2 -136 -23 -128
-47 17 -17 104 -40 208 -63 284 -15 52 -30 195 -19 185 3 -3 10 -26 15 -50z
m179 -583 c6 -39 18 -114 27 -166 16 -105 20 -234 6 -226 -5 3 -11 23 -14 43
-3 21 -11 65 -17 98 -33 175 -50 285 -50 325 l0 45 19 -24 c10 -13 23 -56 29
-95z m-1361 -96 c10 -23 15 -62 14 -115 -3 -124 -2 -133 20 -180 38 -80 18
-87 -33 -12 l-46 69 15 45 c19 54 13 176 -10 222 -8 17 -12 33 -9 36 8 8 30
-21 49 -65z m-561 -232 c5 -17 0 -27 -21 -44 -26 -21 -27 -24 -16 -52 14 -34
51 -72 51 -53 0 7 -5 21 -11 32 -6 12 -7 28 -3 37 4 9 6 20 6 25 -3 11 16 9
23 -3 4 -6 11 -7 17 -4 8 5 9 1 5 -11 -8 -20 54 -85 82 -85 9 0 22 -5 28 -11
6 -6 16 -8 23 -4 8 5 6 11 -7 22 -16 13 -14 14 29 10 33 -3 51 0 59 9 15 18
29 18 29 0 0 -21 -40 -46 -73 -46 -25 0 -28 -2 -17 -15 22 -27 5 -26 -56 1
-49 22 -68 25 -116 20 -55 -5 -57 -5 -82 29 -31 41 -32 65 -5 122 23 47 44 55
55 21z m44 -198 c19 -6 48 -13 64 -16 16 -3 34 -11 40 -17 6 -7 37 -21 69 -32
58 -19 95 -45 63 -45 -21 0 -149 49 -156 59 -5 10 -25 14 -50 12 -9 -1 -5 -6
10 -14 14 -7 25 -19 25 -26 0 -8 24 -21 55 -30 l55 -17 -37 -13 c-38 -13 -51
-31 -22 -31 8 0 12 5 8 11 -4 7 2 6 17 -1 l23 -13 -24 -9 c-15 -5 -27 -5 -34
2 -5 5 -28 10 -50 10 -36 1 -39 2 -23 14 21 16 22 26 1 26 -8 0 -12 5 -9 10 4
6 15 8 26 5 11 -4 19 -2 19 4 0 6 -11 11 -25 11 -15 0 -25 6 -25 15 0 8 -11
17 -24 21 -30 7 -70 49 -61 63 8 14 21 14 65 1z m-3463 -129 c10 -13 8 -18
-13 -27 -14 -6 -29 -16 -34 -24 -6 -10 -15 -10 -46 1 -58 19 -184 12 -236 -13
-50 -24 -80 -47 -73 -58 8 -13 -41 -21 -67 -11 -27 10 -50 4 -142 -39 -38 -17
-78 -29 -88 -27 -13 4 -45 -15 -101 -60 -124 -98 -137 -110 -137 -124 0 -8 8
-5 23 7 36 32 105 74 122 74 9 0 30 8 48 17 18 9 52 18 77 20 l45 3 -35 -20
c-19 -10 -43 -19 -52 -20 -10 0 -18 -6 -18 -13 0 -6 -29 -32 -65 -56 -61 -42
-113 -91 -198 -186 -19 -22 -39 -37 -42 -33 -15 15 46 95 120 161 72 64 87 91
24 46 -41 -29 -89 -42 -89 -24 0 7 6 20 13 27 7 7 20 23 29 36 8 12 33 42 55
65 21 23 54 63 71 90 20 28 41 47 52 47 10 0 22 5 26 11 8 13 143 79 161 79 7
0 13 -6 13 -14 0 -9 21 -15 73 -19 63 -5 76 -3 107 17 65 43 102 58 109 47 5
-7 22 -6 55 4 27 8 66 15 88 15 28 0 38 4 38 15 0 13 7 15 38 9 20 -4 42 -14
49 -23z m5473 -1 c0 -11 4 -20 8 -20 5 0 16 -64 26 -142 9 -79 24 -190 33
-248 22 -144 14 -501 -11 -526 -10 -9 -19 -14 -23 -11 -3 3 0 45 7 94 19 135
-2 497 -40 683 -22 103 -26 190 -10 190 6 0 10 -9 10 -20z m-5450 -219 c111
-12 150 -20 150 -31 0 -4 18 -15 40 -24 22 -9 40 -20 40 -26 0 -14 -58 0 -97
22 -27 17 -58 20 -235 23 -112 3 -223 0 -248 -5 -97 -21 -110 -23 -110 -11 0
6 10 11 23 11 13 0 27 4 33 8 9 8 42 18 129 40 43 11 124 9 275 -7z m5565
-114 c13 -69 45 -198 65 -262 5 -16 12 -42 15 -57 3 -16 12 -28 19 -28 9 0 16
-17 20 -47 10 -75 11 -151 3 -160 -13 -12 -27 19 -27 61 0 49 -48 245 -101
414 -28 90 -41 209 -18 169 5 -9 16 -50 24 -90z m-575 -1 c0 -30 5 -58 11 -62
8 -5 10 -30 6 -79 -4 -40 -2 -86 3 -104 17 -59 24 -265 10 -291 -23 -44 -29 2
-32 239 -2 127 -6 231 -10 231 -5 0 -8 -24 -8 -52 0 -62 -8 -98 -22 -98 -12 0
0 141 13 155 5 5 9 33 9 62 0 29 5 53 10 53 6 0 10 -24 10 -54z m-4191 -231
c16 -8 48 -17 72 -21 92 -13 241 -86 294 -144 10 -12 49 -41 85 -65 121 -80
131 -118 13 -47 -89 53 -196 127 -211 145 -32 38 -182 96 -293 112 -19 3 -44
12 -55 20 -18 13 -16 14 24 15 24 0 56 -7 71 -15z"/>
<path d="M3865 8153 c-56 -30 -65 -33 -92 -33 -54 -1 -175 -75 -277 -169 -43
-41 -129 -163 -141 -201 -4 -14 -13 -31 -19 -39 -9 -12 -8 -12 11 0 18 11 25
11 35 1 6 -6 21 -12 33 -11 18 0 17 1 -5 10 l-25 10 33 21 c17 11 32 24 32 29
0 5 8 9 18 9 20 1 58 27 50 35 -3 3 -13 -2 -22 -11 -9 -9 -19 -14 -22 -11 -8
8 13 43 39 64 12 10 29 32 36 50 29 71 189 201 251 204 24 1 113 46 103 52 -4
3 -22 -2 -38 -10z"/>
<path d="M3615 6521 c-59 -27 -180 -138 -182 -167 -1 -16 3 -24 14 -24 14 0
81 36 93 50 31 37 255 38 380 1 176 -51 261 -59 407 -36 41 7 51 25 14 25 -10
0 -29 8 -42 19 -30 23 -113 52 -244 86 -269 69 -367 80 -440 46z"/>
<path d="M5215 6446 c30 -21 11 -31 -33 -17 -21 7 -47 12 -57 10 -25 -5 -32
-29 -8 -29 10 0 25 -5 33 -11 11 -7 -9 -9 -69 -5 -47 4 -81 3 -78 0 4 -4 -8
-18 -26 -31 -17 -13 -32 -29 -32 -35 0 -13 -66 -63 -102 -78 -29 -12 -62 0
-97 35 -32 32 -33 26 -2 -23 13 -21 27 -58 31 -82 11 -63 62 -113 133 -130 29
-7 56 -9 59 -6 10 10 -1 15 -61 31 -63 17 -81 30 -96 70 l-10 27 37 -23 c51
-31 61 -35 110 -48 47 -13 220 -4 229 11 3 5 25 6 49 2 25 -3 51 -1 62 5 15 9
12 10 -19 11 -50 0 -48 13 3 30 32 11 45 11 60 2 21 -13 235 -17 243 -4 2 4
-7 13 -22 20 -15 6 -39 23 -54 37 -15 14 -32 25 -38 25 -6 0 -8 4 -5 10 3 5
-7 12 -22 16 -15 3 -35 8 -43 11 -8 3 -42 11 -75 17 -32 6 -58 16 -57 21 4 16
132 9 182 -9 25 -10 83 -19 130 -22 l85 -5 -45 39 c-42 37 -72 56 -130 79 -14
6 -38 16 -54 22 -38 16 -118 32 -181 38 -46 4 -48 3 -30 -11z"/>
<path d="M3805 6324 c-57 -12 -105 -27 -105 -33 0 -4 -17 -15 -37 -24 -36 -16
-138 -105 -130 -113 2 -2 30 1 63 6 85 14 145 12 195 -6 75 -26 140 -34 224
-26 84 9 125 6 125 -9 0 -5 -13 -9 -30 -9 -32 0 -41 -16 -12 -23 9 -2 -1 -4
-23 -5 -22 0 -65 -5 -95 -10 -54 -9 -54 -9 -15 -12 121 -8 174 3 254 51 49 29
48 18 -3 -29 -73 -68 -66 -77 17 -20 15 11 27 17 27 13 0 -3 11 2 25 11 14 9
40 20 58 23 52 11 41 36 -15 36 -36 0 -44 3 -36 13 16 19 83 14 123 -9 20 -12
38 -19 42 -16 8 8 -40 88 -69 113 -36 33 -82 48 -106 35 -12 -6 -32 -11 -46
-11 -23 0 -40 5 -101 31 -56 23 -259 37 -330 23z"/>
<path d="M5000 5627 c0 -7 7 -22 15 -33 15 -20 21 -84 8 -84 -5 0 -21 -13 -38
-28 -16 -15 -46 -39 -65 -52 -19 -13 -37 -27 -40 -30 -15 -15 -54 -30 -82 -30
-34 0 -29 -15 7 -22 40 -8 -40 -38 -101 -38 -52 0 -132 29 -142 53 -2 4 -10 7
-18 7 -8 0 -14 5 -14 10 0 14 28 12 33 -2 2 -7 8 -10 12 -5 9 7 -15 29 -50 45
-37 17 -115 32 -165 32 -29 0 -61 7 -74 16 -18 11 -26 12 -31 3 -5 -7 0 -16
10 -22 10 -5 34 -24 54 -41 41 -36 82 -56 114 -56 36 0 123 -46 170 -89 42
-39 48 -41 103 -40 55 1 57 1 32 13 l-28 12 28 12 c48 22 72 38 110 78 36 38
153 142 175 156 19 12 21 11 80 -47 31 -30 61 -55 67 -55 18 0 9 13 -53 80
-32 34 -56 64 -53 67 8 8 53 -30 77 -67 13 -19 29 -41 34 -49 6 -8 45 -48 88
-90 69 -67 82 -86 87 -126 0 -5 11 2 23 16 12 14 31 30 42 34 18 8 17 9 -7 13
-16 2 -28 8 -28 13 0 5 -5 9 -10 9 -6 0 -19 8 -30 18 -10 9 -44 40 -76 67 -82
73 -144 138 -144 152 0 7 -4 13 -9 13 -4 0 -31 23 -60 51 -28 27 -51 44 -51
36z"/>
<path d="M3930 5300 c-41 -38 -87 -75 -102 -81 -16 -6 -28 -16 -28 -21 0 -10
8 -8 63 9 13 4 17 -1 17 -24 0 -16 5 -34 12 -41 9 -9 9 -15 0 -24 -9 -9 -5
-17 16 -35 15 -12 35 -23 44 -23 9 0 18 -4 20 -9 2 -6 49 -15 105 -20 69 -7
114 -17 139 -31 28 -16 59 -22 128 -25 50 -2 149 -7 219 -11 89 -4 132 -3 140
5 6 6 21 11 34 11 13 0 23 5 23 11 0 7 -18 10 -47 8 -93 -5 -316 1 -309 8 15
16 150 25 403 29 156 2 271 7 282 14 11 5 38 10 60 10 46 0 116 45 146 93 20
33 13 47 -12 25 -29 -25 -92 -58 -112 -58 -11 0 -39 -8 -63 -19 -58 -25 -209
-45 -289 -39 -35 3 -138 2 -228 -3 -106 -6 -186 -5 -230 2 -36 6 -93 12 -126
14 -55 3 -126 29 -167 62 -7 6 -42 13 -77 17 -36 3 -68 12 -73 19 -20 32 -7
53 67 101 41 27 75 51 75 53 0 3 -17 2 -37 -2 -37 -7 -37 -6 -20 12 18 21 22
33 10 33 -5 -1 -42 -32 -83 -70z"/>
<path d="M5830 2778 c0 -4 15 -40 34 -80 19 -40 42 -100 52 -133 10 -33 32
-89 49 -125 18 -36 38 -83 45 -105 16 -53 78 -192 102 -230 l19 -30 -6 35 c-4
19 -12 40 -17 47 -5 6 -29 66 -52 133 -24 66 -55 137 -69 158 -14 20 -40 81
-58 135 -26 80 -98 221 -99 195z"/>
</g>
</svg>
